<?xml version="1.0" encoding="UTF-8"?>
<svg width="58px" height="51px" viewBox="0 0 58 51" version="1.1" xmlns="http://www.w3.org/2000/svg" xmlns:xlink="http://www.w3.org/1999/xlink">
    <!-- Generator: Sketch 50.2 (55047) - http://www.bohemiancoding.com/sketch -->
    <title>Icon_BA</title>
    <desc>Created with Sketch.</desc>
    <defs></defs>
    <g id="Icon_BA" stroke="none" stroke-width="1" fill="none" fill-rule="evenodd">
        <g transform="translate(4.000000, 0.000000)" fill="#000000" fill-rule="nonzero" id="Shape">
            <path d="M51,23.8 L47.528175,23.8 C46.701975,12.95315 38.0477,4.298025 27.2,3.4714 L27.2,0 L23.8,0 L23.8,3.4714 C12.9523,4.298025 4.298025,12.95315 3.4714,23.8 L0,23.8 L0,27.2 L3.4714,27.2 C4.298025,38.04685 12.9523,46.701975 23.8,47.528175 L23.8,51 L27.2,51 L27.2,47.528175 C38.0477,46.701975 46.701975,38.04685 47.528175,27.2 L51,27.2 L51,23.8 Z M44.11925,23.8 L38.99035,23.8 C38.222375,17.650675 33.350175,12.7772 27.2,12.00965 L27.2,6.88075 C36.156875,7.692075 43.307925,14.843125 44.11925,23.8 Z M37.27675,27.2 C36.52875,32.4037 32.4037,36.52875 27.2,37.27675 L27.2,30.6 L23.8,30.6 L23.8,37.27675 C18.5963,36.52875 14.47125,32.4037 13.72325,27.2 L20.4,27.2 L20.4,23.8 L13.72325,23.8 C14.47125,18.5963 18.5963,14.47125 23.8,13.72325 L23.8,20.4 L27.2,20.4 L27.2,13.72325 C32.4037,14.47125 36.52875,18.5963 37.27675,23.8 L30.6,23.8 L30.6,27.2 L37.27675,27.2 Z M23.8,6.88075 L23.8,12.00965 C17.649825,12.7772 12.7772,17.650675 12.00965,23.8 L6.88075,23.8 C7.692075,14.843125 14.843125,7.692075 23.8,6.88075 Z M6.88075,27.2 L12.00965,27.2 C12.7772,33.349325 17.649825,38.2228 23.8,38.99035 L23.8,44.11925 C14.843125,43.307925 7.692075,36.156875 6.88075,27.2 Z M27.2,44.11925 L27.2,38.99035 C33.350175,38.2228 38.222375,33.349325 38.99035,27.2 L44.11925,27.2 C43.307925,36.156875 36.156875,43.307925 27.2,44.11925 Z"></path>
        </g>
    </g>
</svg>