<?xml version="1.0" encoding="UTF-8"?>
<svg width="58px" height="58px" viewBox="0 0 58 58" version="1.1" xmlns="http://www.w3.org/2000/svg" xmlns:xlink="http://www.w3.org/1999/xlink">
    <!-- Generator: Sketch 50.2 (55047) - http://www.bohemiancoding.com/sketch -->
    <title>Icon_BA</title>
    <desc>Created with Sketch.</desc>
    <defs></defs>
    <g id="Icon_BA" stroke="none" stroke-width="1" fill="none" fill-rule="evenodd">
        <g fill="#000000" fill-rule="nonzero" id="Shape">
            <path d="M58,27.0666667 L54.05165,27.0666667 C53.11205,14.7310333 43.2699333,4.88795 30.9333333,3.94786667 L30.9333333,0 L27.0666667,0 L27.0666667,3.94786667 C14.7300667,4.88795 4.88795,14.7310333 3.94786667,27.0666667 L0,27.0666667 L0,30.9333333 L3.94786667,30.9333333 C4.88795,43.2689667 14.7300667,53.11205 27.0666667,54.05165 L27.0666667,58 L30.9333333,58 L30.9333333,54.05165 C43.2699333,53.11205 53.11205,43.2689667 54.05165,30.9333333 L58,30.9333333 L58,27.0666667 Z M50.1748333,27.0666667 L44.3419667,27.0666667 C43.4685833,20.0733167 37.92765,14.5309333 30.9333333,13.6580333 L30.9333333,7.82516667 C41.1195833,8.74785 49.25215,16.8804167 50.1748333,27.0666667 Z M42.3931667,30.9333333 C41.5425,36.8512667 36.8512667,41.5425 30.9333333,42.3931667 L30.9333333,34.8 L27.0666667,34.8 L27.0666667,42.3931667 C21.1487333,41.5425 16.4575,36.8512667 15.6068333,30.9333333 L23.2,30.9333333 L23.2,27.0666667 L15.6068333,27.0666667 C16.4575,21.1487333 21.1487333,16.4575 27.0666667,15.6068333 L27.0666667,23.2 L30.9333333,23.2 L30.9333333,15.6068333 C36.8512667,16.4575 41.5425,21.1487333 42.3931667,27.0666667 L34.8,27.0666667 L34.8,30.9333333 L42.3931667,30.9333333 Z M27.0666667,7.82516667 L27.0666667,13.6580333 C20.07235,14.5309333 14.5309333,20.0733167 13.6580333,27.0666667 L7.82516667,27.0666667 C8.74785,16.8804167 16.8804167,8.74785 27.0666667,7.82516667 Z M7.82516667,30.9333333 L13.6580333,30.9333333 C14.5309333,37.9266833 20.07235,43.4690667 27.0666667,44.3419667 L27.0666667,50.1748333 C16.8804167,49.25215 8.74785,41.1195833 7.82516667,30.9333333 Z M30.9333333,50.1748333 L30.9333333,44.3419667 C37.92765,43.4690667 43.4685833,37.9266833 44.3419667,30.9333333 L50.1748333,30.9333333 C49.25215,41.1195833 41.1195833,49.25215 30.9333333,50.1748333 Z"></path>
        </g>
    </g>
</svg>