<?xml version="1.0" encoding="UTF-8"?>
<svg width="130px" height="82px" viewBox="0 0 130 82" version="1.1" xmlns="http://www.w3.org/2000/svg" xmlns:xlink="http://www.w3.org/1999/xlink">
    <!-- Generator: Sketch 50.2 (55047) - http://www.bohemiancoding.com/sketch -->
    <title>bee</title>
    <desc>Created with Sketch.</desc>
    <defs></defs>
    <g id="bee" stroke="none" stroke-width="1" fill="none" fill-rule="evenodd">
        <g id="bee_64" fill="#000000" fill-rule="nonzero">
            <path d="M47,31 L83,31 C79.1178806,25.57525 72.5076683,22 65.0010826,22 C57.4944969,22 50.8799543,25.57525 47,31 Z" id="Shape"></path>
            <path d="M43.13975,39 C43.04945,39.738 43,40.4895 43,41.25 L43,48 L86,48 L86,41.25 C86,40.4895 85.95055,39.738 85.86025,39 L43.13975,39 Z" id="Shape"></path>
            <path d="M43,62.75 C43,63.5105 43.04945,64.262 43.13975,65 L85.8581,65 C85.95055,64.262 86,63.5105 86,62.75 L86,56 L43,56 L43,62.75 Z" id="Shape"></path>
            <path d="M65,82 C72.5092025,82 79.1176471,78.42475 83,73 L47,73 C50.8801877,78.42475 57.4907975,82 65,82 Z" id="Shape"></path>
            <path d="M9.5911567,35.11285 C7.75935707,35.87395 6.03935741,36.9898 4.54940771,38.47975 C3.05945801,39.9697 1.94360823,41.68755 1.18465839,43.51935 C0.397758544,45.41995 -0.00214137629,47.44095 8.62328063e-06,49.46195 C-0.00214137629,51.4894 0.397758544,53.5104 1.18465839,55.411 C1.94360823,57.2471 3.05945801,58.9628 4.54940771,60.45275 C6.03720741,61.9427 7.75935707,63.05855 9.5890067,63.81965 C11.4788563,64.6001 13.4912559,65 15.5058055,65 C15.5165555,65 15.5273055,65 15.5380555,65 C15.5488055,65 15.5595555,65 15.5703055,65 C17.5827051,65 19.5929547,64.6001 21.4849543,63.81535 C23.3210539,63.0564 25.0346036,61.94055 26.5245533,60.45275 C28.012353,58.96495 29.1325028,57.2471 29.8914526,55.411 L43,22 L9.5911567,35.11285 Z M25.9182534,53.76625 C25.3506535,55.1358 24.5293537,56.3613 23.4823039,57.4105 C22.4352541,58.4554 21.2097544,59.27455 19.8359046,59.84215 C18.4663549,60.4119 17.0301552,60.7 15.5058055,60.7 C14.0395058,60.7 12.6033061,60.4119 11.2445064,59.85075 C9.85990665,59.2724 8.63225689,58.45325 7.5895071,57.40835 C6.54460731,56.3656 5.72760747,55.13795 5.15785759,53.7641 C4.5859577,52.39025 4.30000776,50.9433 4.30000776,49.45765 C4.29785776,47.98275 4.5859577,46.5401 5.15570759,45.1641 C5.72760747,43.7881 6.54675731,42.5626 7.5895071,41.5177 C8.63225689,40.47495 9.86205665,39.6558 11.1606564,39.11615 L35.3954515,29.6024 L25.9182534,53.76625 Z" id="Shape"></path>
            <path d="M128.813251,43.5172 C128.052189,41.6854 126.938545,39.9697 125.44867,38.4776 C123.960945,36.9898 122.238881,35.8718 120.407173,35.1107 L87,22 L100.110042,55.411 C100.871104,57.2471 101.989048,58.9628 103.476773,60.45275 C104.964498,61.94055 106.680112,63.05855 108.51612,63.81535 C110.408025,64.6001 112.418174,65 114.430473,65 C114.441222,65 114.451972,65 114.462721,65 C114.473471,65 114.48422,65 114.49497,65 C116.509419,65 118.521718,64.6001 120.411473,63.81965 C122.241031,63.05855 123.960945,61.9427 125.45082,60.45275 C126.940695,58.96495 128.056489,57.24925 128.815401,55.411 C129.602261,53.5104 130.002141,51.49155 129.999991,49.46195 C129.999991,47.44095 129.600111,45.41995 128.813251,43.5172 Z M124.84025,53.76625 C124.272679,55.1401 123.45357,56.3656 122.406573,57.41265 C121.368175,58.4511 120.138436,59.2724 118.768955,59.84645 C117.395174,60.4119 115.959046,60.7 114.430473,60.7 C112.968546,60.7 111.532418,60.4119 110.158637,59.84215 C108.789156,59.2767 107.565868,58.45755 106.51887,57.41265 C105.471873,56.36345 104.650614,55.1358 104.113141,53.8415 L94.6041683,29.6024 L118.760356,39.08175 C120.138436,39.6558 121.366025,40.47495 122.408722,41.5177 C123.45357,42.5626 124.272679,43.79025 124.84025,45.1598 C125.412122,46.5401 125.700207,47.98275 125.698057,49.46625 C125.698057,50.9433 125.412122,52.39025 124.84025,53.76625 Z" id="Shape"></path>
            <path d="M53.5,17 C58.194125,17 62,13.19625 62,8.5 C62,3.80375 58.194125,0 53.5,0 C48.805875,0 45,3.80375 45,8.5 C45,13.19625 48.805875,17 53.5,17 Z M53.5,4.25 C55.843875,4.25 57.75,6.154 57.75,8.5 C57.75,10.846 55.843875,12.75 53.5,12.75 C51.156125,12.75 49.25,10.846 49.25,8.5 C49.25,6.154 51.156125,4.25 53.5,4.25 Z" id="Shape"></path>
            <path d="M75.5,17 C80.194125,17 84,13.19625 84,8.5 C84,3.80375 80.194125,0 75.5,0 C70.805875,0 67,3.80375 67,8.5 C67,13.19625 70.805875,17 75.5,17 Z M75.5,4.25 C77.843875,4.25 79.75,6.154 79.75,8.5 C79.75,10.846 77.843875,12.75 75.5,12.75 C73.156125,12.75 71.25,10.846 71.25,8.5 C71.25,6.154 73.156125,4.25 75.5,4.25 Z" id="Shape"></path>
        </g>
    </g>
</svg>