<?xml version="1.0" encoding="UTF-8"?>
<svg width="58px" height="58px" viewBox="0 0 58 58" version="1.1" xmlns="http://www.w3.org/2000/svg" xmlns:xlink="http://www.w3.org/1999/xlink">
    <!-- Generator: Sketch 50.2 (55047) - http://www.bohemiancoding.com/sketch -->
    <title>Icon_Design</title>
    <desc>Created with Sketch.</desc>
    <defs></defs>
    <g id="Icon_Design" stroke="none" stroke-width="1" fill="none" fill-rule="evenodd">
        <path d="M53,39 L53,5 L5,5 L5,39 L53,39 Z M0,44 L0,0 L58,0 L58,44 L0,44 Z M27,47 L27,53 L32,53 L32,47 L27,47 Z M16,58 L43,58 L43,52 L16,52 L16,58 Z" fill="#000000" fill-rule="nonzero"></path>
        <rect id="Rectangle-2" stroke="#000000" x="10.5" y="10.5" width="14" height="14"></rect>
        <rect id="Rectangle-2" stroke="#000000" x="10.5" y="31.5" width="9" height="8"></rect>
        <rect id="Rectangle-2" stroke="#000000" x="23.5" y="31.5" width="9" height="8"></rect>
        <rect id="Rectangle-2" stroke="#000000" x="37.5" y="31.5" width="9" height="8"></rect>
        <path d="M29.5,10.5 L46.5,10.5" id="Line-3" stroke="#000000" stroke-linecap="square"></path>
        <path d="M29.5,15.5 L46.5,15.5" id="Line-3" stroke="#000000" stroke-linecap="square"></path>
        <path d="M29.5,19.5 L46.5,19.5" id="Line-3" stroke="#000000" stroke-linecap="square"></path>
        <path d="M29.5,24.5 L46.5,24.5" id="Line-3" stroke="#000000" stroke-linecap="square"></path>
    </g>
</svg>