<?xml version="1.0" encoding="UTF-8"?>
<svg width="58px" height="51px" viewBox="0 0 58 51" version="1.1" xmlns="http://www.w3.org/2000/svg" xmlns:xlink="http://www.w3.org/1999/xlink">
    <!-- Generator: Sketch 50.2 (55047) - http://www.bohemiancoding.com/sketch -->
    <title>Icon_Design</title>
    <desc>Created with Sketch.</desc>
    <defs></defs>
    <g id="Icon_Design" stroke="none" stroke-width="1" fill="none" fill-rule="evenodd">
        <path d="M50.6034483,34.2931034 L50.6034483,4.39655172 L8.39655172,4.39655172 L8.39655172,34.2931034 L50.6034483,34.2931034 Z M4,38.6896552 L4,0 L55,0 L55,38.6896552 L4,38.6896552 Z M27.7413793,41.3275862 L27.7413793,46.6034483 L32.137931,46.6034483 L32.137931,41.3275862 L27.7413793,41.3275862 Z M18.0689655,51 L41.8103448,51 L41.8103448,45.7241379 L18.0689655,45.7241379 L18.0689655,51 Z" fill="#5596e6" fill-rule="nonzero"></path>
        <rect id="Rectangle-2" stroke="#5596e6" x="13.5" y="9.5" width="12" height="12"></rect>
        <rect id="Rectangle-2" stroke="#5596e6" x="13.5" y="27.5" width="8" height="7"></rect>
        <rect id="Rectangle-2" stroke="#5596e6" x="24.5" y="27.5" width="8" height="7"></rect>
        <rect id="Rectangle-2" stroke="#5596e6" x="37.5" y="27.5" width="8" height="7"></rect>
        <path d="M30.4444444,8.5 L45.5555556,8.5" id="Line-3" stroke="#5596e6" stroke-linecap="square"></path>
        <path d="M30.4444444,12.5 L45.5555556,12.5" id="Line-3" stroke="#5596e6" stroke-linecap="square"></path>
        <path d="M30.4444444,16.5 L45.5555556,16.5" id="Line-3" stroke="#5596e6" stroke-linecap="square"></path>
        <path d="M30.4444444,20.5 L45.5555556,20.5" id="Line-3" stroke="#5596e6" stroke-linecap="square"></path>
    </g>
</svg>
